<svg viewBox="-10 -10 627.60 76" xmlns="http://www.w3.org/2000/svg">
  <!-- CodeIntegrity Logo - Light Version -->
  <!-- Font: Chakra Petch Bold (open source) -->
  <!-- Slanted I letters use BoldItalic variant (flipped horizontally) -->

  <g fill="#ffffff">
    <g transform="translate(-4.4, 56) scale(1, -1)">
      <path id="letter-C-0" d="M4.40 9.20L4.40 46.80L13.60 56.00L40.96 56.00L50.00 46.96L50.00 38.40L39.12 38.40L39.12 42.96L35.36 46.72L19.36 46.72L15.28 42.64L15.28 13.36L19.36 9.28L35.36 9.28L39.12 13.04L39.12 17.60L50.00 17.60L50.00 9.04L40.96 0.00L13.60 0.00Z"/>
    </g>
    <g transform="translate(47.2, 56) scale(1, -1)">
      <path id="letter-O-1" d="M4.40 9.20L4.40 46.80L13.60 56.00L42.40 56.00L51.60 46.80L51.60 9.20L42.40 0.00L13.60 0.00ZM36.64 9.28L40.72 13.36L40.72 42.64L36.64 46.72L19.36 46.72L15.28 42.64L15.28 13.36L19.36 9.28Z"/>
    </g>
    <g transform="translate(99.6, 56) scale(1, -1)">
      <path id="letter-D-2" d="M5.20 56.00L41.04 56.00L50.64 46.40L50.64 9.60L41.04 0.00L5.20 0.00ZM35.68 9.28L39.76 13.36L39.76 42.64L35.68 46.72L16.08 46.72L16.08 9.28Z"/>
    </g>
    <g transform="translate(151.0, 56) scale(1, -1)">
      <path id="letter-E-3" d="M5.20 56.00L45.68 56.00L45.68 46.80L16.08 46.80L16.08 32.64L43.36 32.64L43.36 23.60L16.08 23.60L16.08 9.20L45.68 9.20L45.68 0.00L5.20 0.00Z"/>
    </g>
    <g transform="translate(200.6, 56) scale(1, -1)">
      <path id="letter-I-italic-1" d="M12.96 56.00L2.08 56.00L12.00 0.00L22.88 0.00Z"/>
    </g>
    <g transform="translate(224.3, 56) scale(1, -1)">
      <path id="letter-N-5" d="M5.20 56.00L14.96 56.00L39.92 18.00L40.08 18.00L40.08 56.00L50.56 56.00L50.56 0.00L40.80 0.00L15.84 37.92L15.68 37.92L15.68 0.00L5.20 0.00Z"/>
    </g>
    <g transform="translate(279.7, 56) scale(1, -1)">
      <path id="letter-T-6" d="M17.92 46.80L1.20 46.80L1.20 56.00L45.52 56.00L45.52 46.80L28.80 46.80L28.80 0.00L17.92 0.00Z"/>
    </g>
    <g transform="translate(326.0, 56) scale(1, -1)">
      <path id="letter-E-7" d="M5.20 56.00L45.68 56.00L45.68 46.80L16.08 46.80L16.08 32.64L43.36 32.64L43.36 23.60L16.08 23.60L16.08 9.20L45.68 9.20L45.68 0.00L5.20 0.00Z"/>
    </g>
    <g transform="translate(373.3, 56) scale(1, -1)">
      <path id="letter-G-8" d="M4.40 9.20L4.40 46.80L13.60 56.00L41.44 56.00L50.48 46.96L50.48 38.40L39.60 38.40L39.60 42.96L35.84 46.72L19.36 46.72L15.28 42.64L15.28 13.36L19.36 9.28L36.00 9.28L39.92 13.20L39.92 21.92L27.92 21.92L27.92 31.20L50.48 31.20L50.48 9.20L41.28 0.00L13.60 0.00Z"/>
    </g>
    <g transform="translate(424.6, 56) scale(1, -1)">
      <path id="letter-R-9" d="M49.20 18.56L49.20 0.00L38.32 0.00L38.32 16.08L33.52 21.44L16.08 21.44L16.08 0.00L5.20 0.00L5.20 56.00L40.32 56.00L48.88 47.36L48.88 30.40L43.44 24.88ZM16.08 30.40L35.36 30.40L38.16 33.20L38.16 44.08L35.36 46.88L16.08 46.88Z"/>
    </g>
    <g transform="translate(477.7, 56) scale(1, -1)">
      <path id="letter-I-italic-2" d="M12.96 56.00L2.08 56.00L12.00 0.00L22.88 0.00Z"/>
    </g>
    <g transform="translate(505.4, 56) scale(1, -1)">
      <path id="letter-T-11" d="M17.92 46.80L1.20 46.80L1.20 56.00L45.52 56.00L45.52 46.80L28.80 46.80L28.80 0.00L17.92 0.00Z"/>
    </g>
    <g transform="translate(556.9, 56) scale(1, -1)">
      <path id="letter-Y-12" d="M19.92 22.88L0.00 56.00L11.92 56.00L25.28 33.04L25.44 33.04L38.80 56.00L50.72 56.00L30.80 22.88L30.80 0.00L19.92 0.00Z"/>
    </g>
  </g>
</svg>
